<svg xmlns="http://www.w3.org/2000/svg" width="20.1" height="20.1" viewBox="0 0 20.1 20.1">
  <g id="__TEMP__SVG__" transform="translate(-6 -6)">
    <path id="Path_18" data-name="Path 18" d="M13.817,6h-6.7A1.117,1.117,0,0,0,6,7.117v6.7a1.117,1.117,0,0,0,1.117,1.117h6.7a1.117,1.117,0,0,0,1.117-1.117v-6.7A1.117,1.117,0,0,0,13.817,6ZM12.7,12.7H8.233V8.233H12.7Zm12.283,4.467h-6.7a1.117,1.117,0,0,0-1.117,1.117v6.7A1.117,1.117,0,0,0,18.283,26.1h6.7A1.117,1.117,0,0,0,26.1,24.984v-6.7A1.117,1.117,0,0,0,24.984,17.167Zm-1.117,6.7H19.4V19.4h4.467ZM21.634,6A4.467,4.467,0,1,0,26.1,10.467,4.471,4.471,0,0,0,21.634,6Zm0,6.7a2.233,2.233,0,1,1,2.233-2.233A2.236,2.236,0,0,1,21.634,12.7ZM10.467,17.167a4.467,4.467,0,1,0,4.467,4.467A4.471,4.471,0,0,0,10.467,17.167Zm0,6.7A2.233,2.233,0,1,1,12.7,21.634,2.236,2.236,0,0,1,10.467,23.867Z" transform="translate(0 0)" fill="#fff"/>
  </g>
</svg>
