<svg xmlns="http://www.w3.org/2000/svg" width="23.193" height="20.1" viewBox="0 0 23.193 20.1">
  <path id="Path_4" data-name="Path 4" d="M13.57,3.166a.781.781,0,0,0-.96,0L1.5,11.828l.961,1.215,1.358-1.059v9.57A1.549,1.549,0,0,0,5.366,23.1H20.828a1.549,1.549,0,0,0,1.546-1.546V11.992l1.358,1.059.961-1.215Zm1.073,18.389H11.55V15.37h3.092Zm1.546,0V15.37a1.548,1.548,0,0,0-1.546-1.546H11.55A1.548,1.548,0,0,0,10,15.37v6.185H5.366V10.779L13.1,4.757l7.731,6.03V21.555Z" transform="translate(-1.5 -3.001)" fill="#fff"/>
</svg>
