<svg xmlns="http://www.w3.org/2000/svg" width="24.532" height="23" viewBox="0 0 24.532 23">
  <g id="star" transform="translate(-0.004 -1.497)">
    <g id="Group_16" data-name="Group 16" transform="translate(0.004 1.497)">
      <path id="Path_17" data-name="Path 17" d="M4.4,23.5a.814.814,0,0,0,1.144.909l6.731-3.459L19,24.409a.813.813,0,0,0,1.144-.908l-1.273-7.252,5.4-5.145a.852.852,0,0,0-.432-1.457L16.329,8.58,12.981,1.946a.787.787,0,0,0-1.421,0L8.211,8.582.7,9.649a.853.853,0,0,0-.434,1.457l5.4,5.145L4.4,23.5Zm7.52-4.242-5.651,2.9,1.064-6.067a.866.866,0,0,0-.25-.774L2.624,11.073l6.213-.883a.8.8,0,0,0,.6-.442L12.268,4.14,15.1,9.749a.8.8,0,0,0,.6.442l6.213.882-4.456,4.247a.866.866,0,0,0-.25.776l1.064,6.067-5.651-2.9a.771.771,0,0,0-.707,0Z" transform="translate(-0.004 -1.497)" fill="#fff"/>
    </g>
  </g>
</svg>
