<svg xmlns="http://www.w3.org/2000/svg" width="21.671" height="18.949" viewBox="0 0 21.671 18.949">
  <g id="noun-floor-2277983" transform="translate(-6.843 -10.003)">
    <path id="Path_207" data-name="Path 207" d="M7.186,16.652l10.187,5.431a.646.646,0,0,0,.607,0l10.191-5.431a.646.646,0,0,0,0-1.141L17.985,10.079a.642.642,0,0,0-.607,0L7.186,15.51a.646.646,0,0,0,0,1.141ZM17.679,11.38l8.817,4.7L17.679,20.77,8.862,16.083Z" fill="#fff"/>
    <path id="Path_208" data-name="Path 208" d="M27.564,30.574l-9.885,5.272L7.794,30.574a.646.646,0,1,0-.607,1.141l10.187,5.431a.646.646,0,0,0,.607,0l10.191-5.436a.646.646,0,1,0-.607-1.141Z" transform="translate(0 -11.665)" fill="#fff"/>
    <path id="Path_209" data-name="Path 209" d="M27.564,38.46l-9.885,5.272L7.794,38.46A.646.646,0,1,0,7.187,39.6l10.187,5.431a.646.646,0,0,0,.607,0L28.171,39.6a.646.646,0,0,0-.607-1.141Z" transform="translate(0 -16.157)" fill="#fff"/>
  </g>
</svg>
