<svg xmlns="http://www.w3.org/2000/svg" width="27.314" height="19.57" viewBox="0 0 27.314 19.57">
  <g id="bxs-coupon" transform="translate(-264.25 46.75)">
    <path id="Path_22" data-name="Path 22" d="M28.524,10H5.291A1.291,1.291,0,0,0,4,11.291v5.163H5.153A2.679,2.679,0,0,1,7.837,18.6a2.583,2.583,0,0,1-2.547,3.015H4v5.163A1.291,1.291,0,0,0,5.291,28.07H28.524a1.291,1.291,0,0,0,1.291-1.291V21.616H28.524A2.583,2.583,0,0,1,25.977,18.6a2.679,2.679,0,0,1,2.685-2.148h1.153V11.291A1.291,1.291,0,0,0,28.524,10ZM15.616,25.489H13.035V22.907h2.581Zm0-5.163H13.035V17.744h2.581Zm0-5.163H13.035V12.581h2.581Z" transform="translate(261 -56)" fill="none" stroke="#fff" stroke-width="1.5"/>
  </g>
</svg>
