<svg xmlns="http://www.w3.org/2000/svg" width="21.009" height="17" viewBox="0 0 21.009 17">
  <path id="Icon_awesome-user-cog" data-name="Icon awesome-user-cog" d="M19.078,11.666a3.666,3.666,0,0,0,0-1.331l.806-.466a.226.226,0,0,0,.1-.266A4.69,4.69,0,0,0,18.95,7.809a.228.228,0,0,0-.281-.044l-.806.466a3.669,3.669,0,0,0-1.153-.666V6.634a.228.228,0,0,0-.178-.222,4.715,4.715,0,0,0-2.069,0,.228.228,0,0,0-.178.222v.931a3.669,3.669,0,0,0-1.153.666l-.806-.466a.229.229,0,0,0-.281.044A4.69,4.69,0,0,0,11.006,9.6a.23.23,0,0,0,.1.266l.806.466a3.666,3.666,0,0,0,0,1.331l-.806.466a.226.226,0,0,0-.1.266,4.713,4.713,0,0,0,1.038,1.794.228.228,0,0,0,.281.044l.806-.466a3.669,3.669,0,0,0,1.153.666v.931a.228.228,0,0,0,.178.222,4.715,4.715,0,0,0,2.069,0,.228.228,0,0,0,.178-.222v-.931a3.669,3.669,0,0,0,1.153-.666l.806.466a.229.229,0,0,0,.281-.044A4.69,4.69,0,0,0,19.988,12.4a.23.23,0,0,0-.1-.266l-.806-.466Zm-3.578.85A1.516,1.516,0,1,1,17.016,11,1.517,1.517,0,0,1,15.5,12.516ZM7,8A4,4,0,1,0,3,4,4,4,0,0,0,7,8Zm6.288,7.078c-.072-.037-.144-.081-.213-.122l-.247.144a1.226,1.226,0,0,1-1.516-.228A5.7,5.7,0,0,1,10.056,12.7a1.222,1.222,0,0,1,.559-1.428l.247-.144q0-.122,0-.244l-.247-.144a1.221,1.221,0,0,1-.559-1.428c.028-.091.069-.181.1-.272C10.038,9.028,9.922,9,9.8,9H9.278A5.44,5.44,0,0,1,4.722,9H4.2A4.2,4.2,0,0,0,0,13.2v1.3A1.5,1.5,0,0,0,1.5,16h11a1.5,1.5,0,0,0,.85-.266,1.217,1.217,0,0,1-.062-.369Z" transform="translate(0.5 0.5)" fill="none" stroke="#fff" stroke-width="1"/>
</svg>
