<svg xmlns="http://www.w3.org/2000/svg" width="14.371" height="14.371" viewBox="0 0 14.371 14.371">
  <g id="Group_179" data-name="Group 179" transform="translate(0.25 0.25)">
    <path id="Path_221" data-name="Path 221" d="M55.218,46.445h-.991V43.968a2.48,2.48,0,0,0-2.477-2.477V40.5a3.472,3.472,0,0,1,3.468,3.468Z" transform="translate(-41.347 -32.574)" fill="#fff" stroke="#fff" stroke-width="0.5"/>
    <path id="Path_222" data-name="Path 222" d="M14.408,46.445h-.991V43.968a2.48,2.48,0,0,0-2.477-2.477H7.968a2.48,2.48,0,0,0-2.477,2.477v2.477H4.5V43.968A3.472,3.472,0,0,1,7.968,40.5H10.94a3.472,3.472,0,0,1,3.468,3.468Z" transform="translate(-4.5 -32.574)" fill="#fff" stroke="#fff" stroke-width="0.5"/>
    <path id="Path_223" data-name="Path 223" d="M45,4.5v.991a2.477,2.477,0,1,1,0,4.954v.991A3.468,3.468,0,1,0,45,4.5Z" transform="translate(-36.083 -4.5)" fill="#fff" stroke="#fff" stroke-width="0.5"/>
    <path id="Path_224" data-name="Path 224" d="M14.718,5.491a2.477,2.477,0,1,1-2.477,2.477,2.477,2.477,0,0,1,2.477-2.477m0-.991a3.468,3.468,0,1,0,3.468,3.468A3.468,3.468,0,0,0,14.718,4.5Z" transform="translate(-9.764 -4.5)" fill="#fff" stroke="#fff" stroke-width="0.5"/>
  </g>
</svg>
