<svg xmlns="http://www.w3.org/2000/svg" width="23.193" height="12.756" viewBox="0 0 23.193 12.756">
  <g id="bx-stats" transform="translate(-4 -14)">
    <path id="Path_12" data-name="Path 12" d="M24.874,19.8a2.319,2.319,0,0,0-.815.154l-2.781-2.276a2.9,2.9,0,1,0-5.377.5l-3.373,3.987a2.389,2.389,0,0,0-.409-.041,2.274,2.274,0,0,0-.594.086L8.552,19.231a2.211,2.211,0,0,0,.087-.593,2.319,2.319,0,1,0-2.319,2.319,2.274,2.274,0,0,0,.594-.086l2.972,2.972a2.21,2.21,0,0,0-.087.593,2.319,2.319,0,1,0,4.5-.778l3.378-3.992a2.932,2.932,0,0,0,.823.131,2.876,2.876,0,0,0,1.314-.326l2.782,2.276a2.409,2.409,0,0,0-.037.369A2.319,2.319,0,1,0,24.874,19.8Z" transform="translate(0 0)" fill="#fff"/>
  </g>
</svg>
