<svg xmlns="http://www.w3.org/2000/svg" width="23.948" height="17.213" viewBox="0 0 23.948 17.213">
  <g id="Group_160" data-name="Group 160" transform="translate(-5.5 -14.5)">
    <path id="Path_210" data-name="Path 210" d="M13.07,25.543A1.379,1.379,0,0,0,11.73,24.5H8.119V18.029a1.31,1.31,0,1,0-2.619,0v14.7a.374.374,0,0,0,.374.374H7.745a.374.374,0,0,0,.374-.374V27.115h2.152v5.613a.374.374,0,0,0,.374.374h1.5a.374.374,0,0,0,.374-.374V27.115h.468a.374.374,0,0,0,.363-.465Zm-5.7-.673v7.484H6.248V18.029a.561.561,0,1,1,1.123,0Zm4.4,7.484h-.748V27.115h.748Zm.374-5.987H8.119V25.244H11.73a.632.632,0,0,1,.614.48l.16.643Z" transform="translate(0 -1.389)" fill="#fff"/>
    <path id="Path_211" data-name="Path 211" d="M41.345,18.99h-1.41a3.341,3.341,0,0,0,1.009-1.358.374.374,0,0,0-.348-.513h-.318a1.452,1.452,0,0,0-1.3-.807c-.032,0-.063,0-.093,0a1.719,1.719,0,0,0-2.428-.077,1.431,1.431,0,0,0-2.108.881h-.488a.375.375,0,0,0-.347.514,3.339,3.339,0,0,0,1.008,1.357H32.414l.322-2.573A.374.374,0,0,0,32.365,16H30.786l-.3-1.213a.374.374,0,0,0-.363-.283h-.748a.374.374,0,0,0,0,.748h.456l.187.748h-.272a.374.374,0,0,0-.369.436L29.8,18.99h-.429A1.873,1.873,0,0,0,27.5,20.861v7.484a.374.374,0,0,0,.374.374h5.987v2.619a.374.374,0,0,0,.374.374h2.245a.374.374,0,0,0,.374-.374V28.719h5.987a.374.374,0,0,0,.374-.374V20.861A1.873,1.873,0,0,0,41.345,18.99Zm-3.712-2.468a.967.967,0,0,1,.791.409.374.374,0,0,0,.384.151.809.809,0,0,1,.17-.022.71.71,0,0,1,.284.059H37.15a1.42,1.42,0,0,0-.05-.143c0-.011-.007-.023-.012-.034A1.469,1.469,0,0,0,37,16.758.976.976,0,0,1,37.633,16.522Zm-1.888.269a.685.685,0,0,1,.5.212.728.728,0,0,1,.09.113l0,0H35.151A.7.7,0,0,1,35.745,16.791Zm-1.262,1.076h5.493a2.587,2.587,0,0,1-2.141,1.123h-1.21A2.587,2.587,0,0,1,34.483,17.868Zm-2.542-1.123L31.66,18.99h-1.1l-.374-2.245Zm4.166,14.219h-1.5V28.719h1.5Zm6.361-2.994H28.248v-7.11a1.124,1.124,0,0,1,1.123-1.123H41.345a1.124,1.124,0,0,1,1.123,1.123Z" transform="translate(-13.768)" fill="#fff"/>
    <path id="Path_212" data-name="Path 212" d="M43.848,30.5H31.874a.374.374,0,1,0,0,.748H43.848a.374.374,0,0,0,0-.748Z" transform="translate(-16.271 -10.013)" fill="#fff"/>
    <path id="Path_213" data-name="Path 213" d="M33.874,39.5a.374.374,0,0,0-.374.374v2.619a.374.374,0,1,0,.748,0V39.874A.374.374,0,0,0,33.874,39.5Z" transform="translate(-17.523 -15.645)" fill="#fff"/>
    <path id="Path_214" data-name="Path 214" d="M52.874,39.5a.374.374,0,0,0-.374.374v2.619a.374.374,0,0,0,.748,0V39.874A.374.374,0,0,0,52.874,39.5Z" transform="translate(-29.413 -15.645)" fill="#fff"/>
    <path id="Path_215" data-name="Path 215" d="M61.874,39.5a.374.374,0,0,0-.374.374v2.619a.374.374,0,1,0,.748,0V39.874A.374.374,0,0,0,61.874,39.5Z" transform="translate(-35.045 -15.645)" fill="#fff"/>
    <path id="Path_216" data-name="Path 216" d="M42.874,39.5a.374.374,0,0,0-.374.374v2.619a.374.374,0,1,0,.748,0V39.874A.374.374,0,0,0,42.874,39.5Z" transform="translate(-23.155 -15.645)" fill="#fff"/>
  </g>
</svg>
