<svg xmlns="http://www.w3.org/2000/svg" width="13.857" height="19.399" viewBox="0 0 13.857 19.399">
  <g id="document" transform="translate(-9 -3)">
    <path id="Path_19" data-name="Path 19" d="M22.649,8.058,17.8,3.208A.629.629,0,0,0,17.314,3H10.386A1.39,1.39,0,0,0,9,4.386V21.014A1.39,1.39,0,0,0,10.386,22.4H21.471a1.39,1.39,0,0,0,1.386-1.386V8.543A.629.629,0,0,0,22.649,8.058ZM17.314,4.663l3.88,3.88h-3.88Zm4.157,16.351H10.386V4.386h5.543V8.543a1.39,1.39,0,0,0,1.386,1.386h4.157Z" fill="#fff"/>
    <path id="Path_20" data-name="Path 20" d="M15,33h8.314v1.386H15Z" transform="translate(-3.229 -16.143)" fill="#fff"/>
    <path id="Path_21" data-name="Path 21" d="M15,24h8.314v1.386H15Z" transform="translate(-3.229 -11.3)" fill="#fff"/>
  </g>
</svg>
