<svg xmlns="http://www.w3.org/2000/svg" width="18.759" height="20.916" viewBox="0 0 18.759 20.916">
  <g id="delete-svgrepo-com" transform="translate(-3.25 -2.25)">
    <path id="Path_237" data-name="Path 237" d="M10,11v6.472" transform="translate(0.472 0.629)" fill="none" stroke="#ff4e28" stroke-linecap="round" stroke-linejoin="round" stroke-width="1.5"/>
    <path id="Path_238" data-name="Path 238" d="M14,11v6.472" transform="translate(0.787 0.629)" fill="none" stroke="#ff4e28" stroke-linecap="round" stroke-linejoin="round" stroke-width="1.5"/>
    <path id="Path_239" data-name="Path 239" d="M4,7H21.259" transform="translate(0 0.315)" fill="none" stroke="#ff4e28" stroke-linecap="round" stroke-linejoin="round" stroke-width="1.5"/>
    <path id="Path_240" data-name="Path 240" d="M6,7H18.944V18.865A3.236,3.236,0,0,1,15.708,22.1H9.236A3.236,3.236,0,0,1,6,18.865Z" transform="translate(0.157 0.315)" fill="none" stroke="#ff4e28" stroke-linecap="round" stroke-linejoin="round" stroke-width="1.5"/>
    <path id="Path_241" data-name="Path 241" d="M9,5.157A2.157,2.157,0,0,1,11.157,3h2.157a2.157,2.157,0,0,1,2.157,2.157V7.315H9Z" transform="translate(0.393)" fill="none" stroke="#ff4e28" stroke-linecap="round" stroke-linejoin="round" stroke-width="1.5"/>
  </g>
</svg>
