<svg xmlns="http://www.w3.org/2000/svg" width="24.303" height="26.509" viewBox="0 0 24.303 26.509">
  <path id="drink-svgrepo-com" d="M26.875,5.437a.457.457,0,0,0-.323-.781H22.817L24.69,2.783A.906.906,0,1,0,24,1.914a.911.911,0,0,0,.045.223L21.525,4.656H3.164a.457.457,0,0,0-.323.781L14.4,17v9.6H9.83a.457.457,0,0,0-.457.457h0a.457.457,0,0,0,.457.457H19.886a.457.457,0,0,0,.457-.457h0a.457.457,0,0,0-.457-.457h-4.57V17ZM21.9,5.57h3.546l-.914.914H20.989Zm-17.636,0H20.61l-.914.914h-.054a2.014,2.014,0,0,0-1.171-.4,2.093,2.093,0,0,0-1.185.4H5.181ZM19.084,9.74a2.1,2.1,0,0,1-1.327.8,1.343,1.343,0,0,1-.935-.478c-.892-.892-.39-1.548.324-2.262A2.1,2.1,0,0,1,18.472,7a1.343,1.343,0,0,1,.935.478C20.3,8.369,19.8,9.026,19.084,9.74Zm-4.226,6.422L6.1,7.4H16.261a2.161,2.161,0,0,0-.41,2.931L13.03,13.151a.457.457,0,0,0,.646.646l2.816-2.816a2.057,2.057,0,0,0,1.265.474,2.885,2.885,0,0,0,1.974-1.069c.466-.466,1.612-1.615.775-2.986h3.114Z" transform="translate(-2.707 -1)" fill="#474747"/>
</svg>
