<svg xmlns="http://www.w3.org/2000/svg" width="25.98" height="34.638" viewBox="0 0 25.98 34.638">
  <g id="fountain-with-water-svgrepo-com" transform="translate(-63.984 -0.001)">
    <path id="Path_151" data-name="Path 151" d="M89.423,76.421H78.6V71.844a6.34,6.34,0,0,0,1.68-.556,2.433,2.433,0,0,0,1.567-2.06.547.547,0,0,0-.541-.553H77.515v-1.66h.541a.553.553,0,0,0,0-1.106h-.514a5.625,5.625,0,0,1,.172-.937.555.555,0,0,0-.376-.682,2.491,2.491,0,0,1-.728,0,.555.555,0,0,0-.376.682,5.628,5.628,0,0,1,.172.937h-.514a.553.553,0,0,0,0,1.106h.541v1.66H72.644a.547.547,0,0,0-.541.553,2.433,2.433,0,0,0,1.567,2.06,6.339,6.339,0,0,0,1.68.556v4.577H64.525a.547.547,0,0,0-.541.553c0,1.456,1.414,2.848,3.983,3.918A22.962,22.962,0,0,0,75.35,82.46v1.153H73.726a.553.553,0,0,0,0,1.106,1.1,1.1,0,0,1,1.082,1.106v6.085H72.915a.822.822,0,0,0-.812.83v1.936a.547.547,0,0,0,.541.553H81.3a.547.547,0,0,0,.541-.553V92.741a.822.822,0,0,0-.812-.83H79.139V85.826a1.1,1.1,0,0,1,1.083-1.106.553.553,0,0,0,0-1.106H78.6V82.46a22.961,22.961,0,0,0,7.383-1.567c2.568-1.071,3.983-2.462,3.983-3.918A.547.547,0,0,0,89.423,76.421ZM73.438,69.782H80.51a6.2,6.2,0,0,1-7.072,0Zm2.995,2.2c.179.011.359.017.541.017s.363-.006.541-.017v4.443H76.433Zm4.33,22.146H73.185V93.018h7.577Zm-2.706-8.3v6.085H75.892V85.826a2.236,2.236,0,0,0-.291-1.106h2.748A2.236,2.236,0,0,0,78.057,85.826Zm-.541-2.213H76.433V82.5q.27.005.541.005t.541-.005Zm8.057-3.745a24.9,24.9,0,0,1-17.2,0A6.116,6.116,0,0,1,65.2,77.527H88.745A6.117,6.117,0,0,1,85.572,79.868Z" transform="translate(0 -60.592)" fill="#474747"/>
    <path id="Path_152" data-name="Path 152" d="M110.007,6.456a.456.456,0,0,0,.262-.083,4.562,4.562,0,0,1,1.107-.569.458.458,0,1,0-.3-.864,5.478,5.478,0,0,0-1.329.683.458.458,0,0,0,.263.833Z" transform="translate(-42.957 -4.633)" fill="#474747"/>
    <path id="Path_153" data-name="Path 153" d="M214.259,19.377a4.607,4.607,0,0,1,.869.892.458.458,0,0,0,.736-.545,5.525,5.525,0,0,0-1.042-1.069.458.458,0,1,0-.563.722Z" transform="translate(-139.798 -17.495)" fill="#474747"/>
    <path id="Path_154" data-name="Path 154" d="M76.864,40.614a.457.457,0,0,0,.58-.288A4.559,4.559,0,0,1,78,39.213a.458.458,0,0,0-.757-.515,5.476,5.476,0,0,0-.665,1.337A.458.458,0,0,0,76.864,40.614Z" transform="translate(-11.849 -36.293)" fill="#474747"/>
    <path id="Path_155" data-name="Path 155" d="M162.716.917a4.576,4.576,0,0,1,1.228.2.458.458,0,1,0,.269-.875A5.491,5.491,0,0,0,162.74,0a.458.458,0,1,0-.023.915Z" transform="translate(-91.519 0)" fill="#474747"/>
    <path id="Path_156" data-name="Path 156" d="M72.444,204.583a.458.458,0,0,0,.458-.458v-.261a.458.458,0,1,0-.916,0v.261A.458.458,0,0,0,72.444,204.583Z" transform="translate(-7.544 -189.555)" fill="#474747"/>
    <path id="Path_157" data-name="Path 157" d="M72.444,149.7a.458.458,0,0,0,.458-.458v-1.374a.458.458,0,0,0-.916,0v1.374A.458.458,0,0,0,72.444,149.7Z" transform="translate(-7.544 -137.302)" fill="#474747"/>
    <path id="Path_158" data-name="Path 158" d="M72.444,93.7a.458.458,0,0,0,.458-.458V91.864a.458.458,0,1,0-.916,0v1.374A.458.458,0,0,0,72.444,93.7Z" transform="translate(-7.544 -85.14)" fill="#474747"/>
    <path id="Path_159" data-name="Path 159" d="M424.9,147.864a.458.458,0,0,0-.916,0v1.374a.458.458,0,1,0,.916,0Z" transform="translate(-335.395 -137.302)" fill="#474747"/>
    <path id="Path_160" data-name="Path 160" d="M424.444,203.406a.458.458,0,0,0-.458.458v.261a.458.458,0,0,0,.916,0v-.261A.458.458,0,0,0,424.444,203.406Z" transform="translate(-335.395 -189.555)" fill="#474747"/>
    <path id="Path_161" data-name="Path 161" d="M423.986,91.864v1.374a.458.458,0,1,0,.916,0V91.864a.458.458,0,0,0-.916,0Z" transform="translate(-335.395 -85.14)" fill="#474747"/>
    <path id="Path_162" data-name="Path 162" d="M409.4,40.326a.458.458,0,0,0,.868-.292,5.476,5.476,0,0,0-.665-1.337.458.458,0,0,0-.757.515A4.56,4.56,0,0,1,409.4,40.326Z" transform="translate(-321.051 -36.292)" fill="#474747"/>
    <path id="Path_163" data-name="Path 163" d="M265.378,20.364a.458.458,0,0,0,.64-.1,4.606,4.606,0,0,1,.869-.892.458.458,0,0,0-.563-.722,5.524,5.524,0,0,0-1.042,1.069A.458.458,0,0,0,265.378,20.364Z" transform="translate(-187.4 -17.495)" fill="#474747"/>
    <path id="Path_164" data-name="Path 164" d="M365.448,5.8a4.564,4.564,0,0,1,1.107.569.458.458,0,0,0,.525-.75,5.481,5.481,0,0,0-1.329-.683.458.458,0,1,0-.3.864Z" transform="translate(-279.919 -4.633)" fill="#474747"/>
    <path id="Path_165" data-name="Path 165" d="M310.553,1.136a.457.457,0,0,0,.135-.02,4.578,4.578,0,0,1,1.228-.2A.458.458,0,1,0,311.892,0a5.491,5.491,0,0,0-1.474.24.458.458,0,0,0,.134.9Z" transform="translate(-229.165 0)" fill="#474747"/>
  </g>
</svg>
