<svg xmlns="http://www.w3.org/2000/svg" width="38.054" height="37.111" viewBox="0 0 38.054 37.111">
  <g id="i-billing-svgrepo-com" transform="translate(-0.796 -1.575)">
    <path id="Path_167" data-name="Path 167" d="M12.611,8.039a2.9,2.9,0,1,0-2.9-2.9,2.9,2.9,0,0,0,2.9,2.9Z" transform="translate(-3.397 -0.088)" fill="none" stroke="#474747" stroke-width="0.9"/>
    <path id="Path_168" data-name="Path 168" d="M48.883,7.91a2.943,2.943,0,1,0-2.942-2.943A2.944,2.944,0,0,0,48.883,7.91Z" transform="translate(-17.928)" fill="none" stroke="#474747" stroke-width="0.9"/>
    <path id="Path_169" data-name="Path 169" d="M8.145,39.458a6.9,6.9,0,1,0,6.9,6.9,6.9,6.9,0,0,0-6.9-6.9Zm.817,11.274v1.1H7.314v-1.1a3.354,3.354,0,0,1-2.88-2.969H6.191a1.4,1.4,0,0,0,1.138,1.3V47c-.379-.073-.591-.133-1-.244a2.325,2.325,0,0,1-1.758-2.277,2.939,2.939,0,0,1,2.741-2.564V40.883H8.963v1.029a3.038,3.038,0,0,1,2.847,2.83H10.088a1.206,1.206,0,0,0-1.125-1.149v1.938c.479.105.479.093.918.213a2.372,2.372,0,0,1,2.009,2.419c0,1.382-1.106,2.331-2.928,2.569Z" transform="translate(-0.001 -15.015)" fill="none" stroke="#474747" stroke-width="0.9"/>
    <path id="Path_170" data-name="Path 170" d="M10.746,48.009c-.737-.131-.941-.446-.941-.786,0-.4.5-.78.941-.831Zm1.668,3.829V50.091c.728.1,1.189.417,1.189.867,0,.4-.429.85-1.189.879Z" transform="translate(-3.433 -17.796)" fill="none" stroke="#474747" stroke-width="0.9"/>
    <path id="Path_171" data-name="Path 171" d="M5.625,17.61H6.767l-1.32,4.913h7.917l-1.32-4.913h1.142l1.353,4.913h2.547l-1.634-5.959a4.128,4.128,0,0,0-3.73-2.97H7.088a4.128,4.128,0,0,0-3.732,2.97L1.723,22.523H4.27L5.624,17.61Z" transform="translate(-0.191 -4.64)" fill="none" stroke="#474747" stroke-width="0.9"/>
    <path id="Path_172" data-name="Path 172" d="M34.1,13.545a2.618,2.618,0,0,1,2.619,2.617l0,8.033H38.4v3.293l-3.411,0V41.129a1.731,1.731,0,0,1-3.462,0V27.491h-1.1V41.129a1.731,1.731,0,0,1-3.462,0V27.492L1.246,27.5V24.2H26.965V16.46l-5.494,6.505a1.353,1.353,0,0,1-2.054-1.76l5.693-6.84a2.3,2.3,0,0,1,2.058-.82H34.1Z" transform="translate(0 -4.621)" fill="none" stroke="#474747" stroke-width="0.9"/>
  </g>
</svg>
