<svg id="kitchen-cabinets-svgrepo-com" xmlns="http://www.w3.org/2000/svg" width="33.508" height="27.834" viewBox="0 0 33.508 27.834">
  <path id="Path_173" data-name="Path 173" d="M9.135,1.053H1.053v6.2H9.138l0-6.2ZM10.117,0H32.453a.9.9,0,0,1,.363.074.989.989,0,0,1,.308.207l.005.005a.937.937,0,0,1,.2.308.947.947,0,0,1,.074.363v6.4a.921.921,0,0,1-.074.365,1,1,0,0,1-.207.311l-.011.008a.96.96,0,0,1-.3.2.947.947,0,0,1-.363.074H23.465a.07.07,0,0,1-.071-.071V1.053H18.829V2.934l3.354,3.815a.528.528,0,0,1-.046.744l-.005,0a.492.492,0,0,1-.158.093.512.512,0,0,1-.18.033H11.718a.531.531,0,0,1-.526-.526.505.505,0,0,1,.046-.213.519.519,0,0,1,.128-.177l3.452-3.774V1.053H10.191V8.235a.07.07,0,0,1-.071.071H.954a.9.9,0,0,1-.363-.074,1,1,0,0,1-.311-.207.97.97,0,0,1-.207-.311A.876.876,0,0,1,0,7.355V.954A.921.921,0,0,1,.074.589.878.878,0,0,1,.281.281q0-.008.008-.008a.96.96,0,0,1,.3-.2A.921.921,0,0,1,.954,0ZM.954,14.27h31.6a.947.947,0,0,1,.363.074,1,1,0,0,1,.311.207l0,0a.969.969,0,0,1,.2.305.95.95,0,0,1,.074.365V26.857a.947.947,0,0,1-.074.363,1,1,0,0,1-.2.3l-.008.011,0,0a.909.909,0,0,1-.308.2.947.947,0,0,1-.363.074H23.994l-.068.016a.413.413,0,0,1-.082.005c-.027,0-.055,0-.082-.005a.277.277,0,0,1-.068-.016H9.814l-.068.016a.413.413,0,0,1-.082.005c-.027,0-.055,0-.082-.005a.277.277,0,0,1-.068-.016H.954a.9.9,0,0,1-.363-.074.93.93,0,0,1-.3-.2.021.021,0,0,1-.011-.011.989.989,0,0,1-.207-.308A.9.9,0,0,1,0,26.857V15.224a.921.921,0,0,1,.074-.365,1,1,0,0,1,.207-.311.038.038,0,0,1,.011-.008.96.96,0,0,1,.3-.2.945.945,0,0,1,.363-.071Zm31.5,1.053H24.371V26.759h8.085V15.323Zm-9.138,0H10.191V17.87H23.318V15.323Zm-14.18,0H1.053V26.759H9.138V15.323Zm1.053,11.434H23.318V18.925H10.191v7.832Zm7.586-25.7H15.871V3.131a.053.053,0,0,1,0,.019.537.537,0,0,1-.035.172.511.511,0,0,1-.1.164L12.909,6.569h7.717L17.919,3.49a.546.546,0,0,1-.106-.164.525.525,0,0,1-.038-.2V1.053Zm7.851,14.859a.563.563,0,0,1,.215.044l0,0a.578.578,0,0,1,.18.12.6.6,0,0,1,.123.183.563.563,0,0,1,.044.215.573.573,0,0,1-.044.215.6.6,0,0,1-.123.183l-.005,0a.57.57,0,0,1-.18.117.554.554,0,0,1-.431,0,.59.59,0,0,1-.177-.117l-.008-.005a.545.545,0,0,1-.12-.183l0,0a.547.547,0,0,1-.041-.213.563.563,0,0,1,.044-.215.553.553,0,0,1,.123-.183.6.6,0,0,1,.183-.123l0,0a.652.652,0,0,1,.215-.038ZM6.024,1.582a.563.563,0,0,1,.215.044.571.571,0,0,1,.305.305.554.554,0,0,1,0,.431.529.529,0,0,1-.117.177l-.008.008a.57.57,0,0,1-.18.117.563.563,0,0,1-.215.044.573.573,0,0,1-.215-.044.553.553,0,0,1-.183-.123L5.62,2.536A.59.59,0,0,1,5.5,2.359a.554.554,0,0,1,0-.431l0,0a.578.578,0,0,1,.12-.18.6.6,0,0,1,.183-.123l0,0a.7.7,0,0,1,.213-.038Zm18.459-.529h-.035v6.2h7.911v-6.2Zm2.509.69a.57.57,0,0,1,.18-.117.554.554,0,0,1,.431,0l0,0a.578.578,0,0,1,.18.12.6.6,0,0,1,.123.183.554.554,0,0,1,0,.431l0,0a.546.546,0,0,1-.117.175l-.008.008a.59.59,0,0,1-.177.117.554.554,0,0,1-.431,0,.553.553,0,0,1-.183-.123h0a.6.6,0,0,1-.123-.183.563.563,0,0,1-.044-.215.573.573,0,0,1,.044-.215.6.6,0,0,1,.123-.183l0,0ZM7.758,15.912a.563.563,0,0,1,.215.044l0,0a.63.63,0,0,1,.18.12l0,.005a.59.59,0,0,1,.117.177l0,0a.547.547,0,0,1,.041.213.573.573,0,0,1-.044.215.6.6,0,0,1-.123.183l-.005,0a.57.57,0,0,1-.18.117.554.554,0,0,1-.431,0,.553.553,0,0,1-.183-.123h0a.6.6,0,0,1-.123-.183l0,0a.547.547,0,0,1-.041-.213.563.563,0,0,1,.044-.215.553.553,0,0,1,.123-.183.6.6,0,0,1,.183-.123.688.688,0,0,1,.221-.041Z" fill="#474747"/>
</svg>
