<svg xmlns="http://www.w3.org/2000/svg" width="27.2" height="27.2" viewBox="0 0 27.2 27.2">
  <path id="layout-6-svgrepo-com" d="M4,12.125V26.75A3.25,3.25,0,0,0,7.25,30h4.875M4,12.125V7.25A3.25,3.25,0,0,1,7.25,4h19.5A3.25,3.25,0,0,1,30,7.25v4.875m-26,0h8.125m17.875,0H12.125m17.875,0v8.938M12.125,12.125v8.938m0,8.937H26.75A3.25,3.25,0,0,0,30,26.75V21.063M12.125,30V21.063m0,0H30" transform="translate(-3.4 -3.4)" fill="none" stroke="#474747" stroke-linecap="round" stroke-linejoin="round" stroke-width="1.2"/>
</svg>
