<svg xmlns="http://www.w3.org/2000/svg" width="32.824" height="23.484" viewBox="0 0 32.824 23.484">
  <path id="table-svgrepo-com" d="M6.941,11l-6.7,6.145a.632.632,0,0,0-.126.115L0,17.374v.148a.553.553,0,0,0,0,.2v3.518H1.964V34.484H5.9V21.237H7.213v9.032H11.15V21.237h10.5v9.032h3.937V21.237H26.9V34.484h3.937V21.237H32.8V17.725a.553.553,0,0,0,0-.2v-.154l-.127-.116a.631.631,0,0,0-.12-.112l0,0L25.856,11H6.941Zm.543,1.2H25.313l5.249,4.817H2.235ZM1.308,18.226H31.49v1.806h-1.2a.715.715,0,0,0-.214,0H27.654a.645.645,0,0,0-.206,0H25.039a.714.714,0,0,0-.214,0H22.405a.645.645,0,0,0-.206,0H10.6a.715.715,0,0,0-.214,0H7.97a.645.645,0,0,0-.206,0H5.355a.714.714,0,0,0-.214,0H2.721a.645.645,0,0,0-.206,0H1.308Zm1.968,3.011H4.588V33.279H3.276Zm5.249,0H9.837v7.828H8.525Zm14.435,0h1.312v7.828H22.96Zm5.249,0h1.312V33.279H28.209Z" transform="translate(0.013 -11)" fill="#474747"/>
</svg>
