<svg xmlns="http://www.w3.org/2000/svg" width="23.169" height="26.019" viewBox="0 0 23.169 26.019">
  <path id="toilet-sign-svgrepo-com" d="M30.061,26.019H12.388a.339.339,0,0,1-.327-.43l1.365-4.9a8.571,8.571,0,0,1-1.968-5.25h-.617A.339.339,0,0,1,10.5,15.1v-.237A1.46,1.46,0,0,1,11.962,13.4H23.718a1.461,1.461,0,0,1,1.442,1.24,1.081,1.081,0,0,0,.441-.423,1.105,1.105,0,0,0,.137-.553V3.833h-.266a.339.339,0,0,1-.339-.339V2.51a1.053,1.053,0,0,1,1.052-1.052h2.222a1.069,1.069,0,1,1,1.99,0H32.62A1.053,1.053,0,0,1,33.672,2.51v.984a.339.339,0,0,1-.339.339h-.266v8.881a4.309,4.309,0,0,1-1,2.766c-.106.136-.229.288-.351.439-.1.125-.2.249-.29.362s-.185.23-.282.348a6.029,6.029,0,0,0-1.624,3.555,23.583,23.583,0,0,0,.844,5.315l.025.081a.339.339,0,0,1-.325.438ZM12.834,25.34H29.62a21.187,21.187,0,0,1-.778-5.225A6.689,6.689,0,0,1,30.617,16.2c.094-.115.186-.227.274-.337s.192-.241.295-.368c.119-.148.24-.3.345-.431a3.665,3.665,0,0,0,.858-2.348V3.833h-5.97v9.829a1.783,1.783,0,0,1-.229.893,1.764,1.764,0,0,1-1.223.854.339.339,0,0,1-.128.025h-12.7a7.864,7.864,0,0,0,1.918,4.94v0l0,0a6.566,6.566,0,0,0,4.806,1.906.339.339,0,1,1,0,.678,7.406,7.406,0,0,1-4.892-1.723ZM11.792,14.756h12.7a.781.781,0,0,0-.774-.678H11.962a.781.781,0,0,0-.774.678Zm20.935-11.6h.266V2.51a.373.373,0,0,0-.373-.373H26.186a.374.374,0,0,0-.373.373v.645ZM29.4.678a.39.39,0,1,0,.39.39A.391.391,0,0,0,29.4.678Z" transform="translate(-10.503)" fill="#474747"/>
</svg>
